<svg width="18" height="17" viewBox="0 0 18 17" fill="none" xmlns="http://www.w3.org/2000/svg">
<path d="M15.0371 2.38965C15.0371 2.27077 15.0843 2.15676 15.1684 2.07269C15.2525 1.98863 15.3665 1.94141 15.4854 1.94141C15.6042 1.94141 15.7182 1.98863 15.8023 2.07269C15.8864 2.15676 15.9336 2.27077 15.9336 2.38965V14.6416C15.9336 14.7605 15.8864 14.8745 15.8023 14.9586C15.7182 15.0426 15.6042 15.0898 15.4854 15.0898C15.3665 15.0898 15.2525 15.0426 15.1684 14.9586C15.0843 14.8745 15.0371 14.7605 15.0371 14.6416V2.38965ZM2.78516 3.28852C2.78516 2.20318 4.00497 1.56488 4.89668 2.18405L12.3698 7.37171C12.5475 7.49505 12.6929 7.65945 12.7935 7.85095C12.8941 8.04246 12.9471 8.25543 12.9479 8.47177C12.9486 8.68811 12.8972 8.90144 12.7979 9.09365C12.6986 9.28586 12.5544 9.45128 12.3775 9.57587L4.90445 14.8412C4.01394 15.4688 2.78516 14.8329 2.78516 13.7421V3.28852Z" fill="#28A1FB"/>
</svg>
