<svg width="14" height="17" viewBox="0 0 14 17" fill="none" xmlns="http://www.w3.org/2000/svg">
<path d="M13.8672 8.51563C13.8677 8.71856 13.8157 8.91815 13.7162 9.09502C13.6167 9.27188 13.4731 9.41998 13.2994 9.52492L2.53562 16.1096C2.35415 16.2207 2.1463 16.2814 1.93354 16.2853C1.72079 16.2893 1.51083 16.2363 1.32537 16.132C1.14167 16.0293 0.988649 15.8795 0.882033 15.6981C0.775416 15.5166 0.719057 15.31 0.71875 15.0996V1.9317C0.719057 1.72124 0.775416 1.51466 0.882033 1.3332C0.988649 1.15174 1.14167 1.00196 1.32537 0.89925C1.51083 0.79492 1.72079 0.741993 1.93354 0.745932C2.1463 0.749872 2.35415 0.810537 2.53562 0.921662L13.2994 7.50634C13.4731 7.61128 13.6167 7.75939 13.7162 7.93625C13.8157 8.11311 13.8677 8.31271 13.8672 8.51563Z" fill="white"/>
</svg>
